<svg width="1412" height="945" viewBox="0 0 1412 945" fill="none" xmlns="http://www.w3.org/2000/svg">
<path d="M36.3649 386.607V370.335H49.997C51.6811 370.335 52.9859 370.76 53.9114 371.61C54.8521 372.459 55.3224 373.749 55.3224 375.479C55.3224 377.208 54.8521 378.498 53.9114 379.348C52.9859 380.197 51.6811 380.622 49.997 380.622H40.0062V386.607H36.3649ZM49.5646 373.294H40.0062V377.641L49.5646 377.663C50.2322 377.663 50.7405 377.497 51.0894 377.163C51.4535 376.829 51.6356 376.268 51.6356 375.479C51.6356 374.675 51.4535 374.113 51.0894 373.795C50.7405 373.461 50.2322 373.294 49.5646 373.294ZM58.621 386.607V370.335H72.2532C73.9373 370.335 75.2421 370.76 76.1675 371.61C77.1082 372.459 77.5786 373.749 77.5786 375.479C77.5786 376.95 77.2372 378.103 76.5544 378.938C75.8717 379.772 74.9007 380.296 73.6414 380.508L77.3965 386.607H73.2545L69.7725 380.622H62.2623V386.607H58.621ZM71.8207 373.294H62.2623V377.641L71.8207 377.663C72.4883 377.663 72.9966 377.497 73.3455 377.163C73.7097 376.829 73.8917 376.268 73.8917 375.479C73.8917 374.675 73.7097 374.113 73.3455 373.795C72.9966 373.461 72.4883 373.294 71.8207 373.294ZM81.3439 386.607V370.335H99.1862V373.294H84.9852V376.89H97.8663V379.848H84.9852V383.649H99.1862V386.607H81.3439ZM102.028 381.282V378.665H108.992V381.282H102.028ZM111.998 386.721V383.763L125.084 383.785C125.751 383.785 126.26 383.634 126.609 383.33C126.973 383.012 127.155 382.503 127.155 381.805C127.155 381.108 126.973 380.607 126.609 380.303C126.26 379.985 125.751 379.826 125.084 379.826H116.936C115.252 379.826 113.94 379.423 112.999 378.619C112.074 377.8 111.611 376.601 111.611 375.024C111.611 373.446 112.074 372.255 112.999 371.451C113.94 370.631 115.252 370.222 116.936 370.222H129.726V373.18L117.323 373.157C116.671 373.157 116.163 373.309 115.798 373.613C115.434 373.901 115.252 374.371 115.252 375.024C115.252 375.676 115.434 376.154 115.798 376.457C116.163 376.746 116.671 376.89 117.323 376.89H125.471C127.155 376.89 128.46 377.307 129.385 378.141C130.326 378.961 130.796 380.182 130.796 381.805C130.796 383.414 130.326 384.635 129.385 385.47C128.46 386.304 127.155 386.721 125.471 386.721H111.998ZM132.745 386.607L140.073 370.335H145.695L153.023 386.607H149.063L147.515 383.171H138.253L136.705 386.607H132.745ZM139.573 380.212H146.195L143.032 373.18H142.736L139.573 380.212ZM155.878 386.607V370.335H159.519V383.649H171.422V386.607H155.878ZM174.734 386.607V370.335H192.576V373.294H178.375V376.89H191.256V379.848H178.375V383.649H192.576V386.607H174.734Z" fill="white"/>
<path d="M1052.67 362.977V360.018L1065.76 360.041C1066.43 360.041 1066.94 359.889 1067.28 359.586C1067.65 359.267 1067.83 358.759 1067.83 358.061C1067.83 357.363 1067.65 356.862 1067.28 356.559C1066.94 356.24 1066.43 356.081 1065.76 356.081H1057.61C1055.93 356.081 1054.62 355.679 1053.68 354.875C1052.75 354.056 1052.29 352.857 1052.29 351.279C1052.29 349.701 1052.75 348.51 1053.68 347.706C1054.62 346.887 1055.93 346.477 1057.61 346.477H1070.4V349.436L1058 349.413C1057.35 349.413 1056.84 349.565 1056.47 349.868C1056.11 350.156 1055.93 350.627 1055.93 351.279C1055.93 351.931 1056.11 352.409 1056.47 352.713C1056.84 353.001 1057.35 353.145 1058 353.145H1066.15C1067.83 353.145 1069.14 353.562 1070.06 354.397C1071 355.216 1071.47 356.438 1071.47 358.061C1071.47 359.669 1071 360.891 1070.06 361.725C1069.14 362.559 1067.83 362.977 1066.15 362.977H1052.67ZM1074.22 354.829V346.591H1094.24V354.829H1090.56V349.549H1085.6V362.863H1081.96V349.549H1077.9V354.829H1074.22ZM1094.25 362.863L1101.58 346.591H1107.2L1114.53 362.863H1110.57L1109.02 359.426H1099.76L1098.21 362.863H1094.25ZM1101.08 356.468H1107.7L1104.54 349.436H1104.25L1101.08 356.468ZM1117.39 362.863V346.636H1121.03V353.259H1126.45L1131.79 346.636H1136.32L1129.63 354.738L1136.32 362.863H1131.79L1126.42 356.218H1121.03V362.863H1117.39ZM1139.18 362.863V346.591H1142.82V362.863H1139.18ZM1147.03 362.863V346.591H1150.72L1162.23 358.289V346.591H1165.88V362.863H1162.19L1150.67 351.142V362.863H1147.03ZM1178.01 362.977C1175.23 362.977 1173.06 362.286 1171.5 360.906C1169.95 359.51 1169.18 357.446 1169.18 354.716C1169.18 352 1169.97 349.951 1171.54 348.571C1173.14 347.175 1175.44 346.477 1178.46 346.477H1187.11V349.436H1178.71C1176.73 349.436 1175.25 349.853 1174.3 350.687C1173.36 351.522 1172.89 352.865 1172.89 354.716C1172.89 356.475 1173.3 357.78 1174.14 358.63C1174.97 359.464 1176.19 359.92 1177.8 359.995V353.669H1188V362.977H1178.01ZM1181.22 360.018H1184.36V356.627H1181.22V360.018ZM1199.83 362.863L1207.16 346.591H1212.78L1220.11 362.863H1216.15L1214.6 359.426H1205.34L1203.79 362.863H1199.83ZM1206.66 356.468H1213.28L1210.12 349.436H1209.82L1206.66 356.468ZM1222.97 362.863V346.591H1226.65L1238.17 358.289V346.591H1241.81V362.863H1238.12L1226.61 351.142V362.863H1222.97ZM1246.02 362.863V346.591H1248.71L1255.99 346.568C1258.93 346.568 1261.22 347.258 1262.84 348.639C1264.46 350.02 1265.28 352.045 1265.28 354.716C1265.28 357.386 1264.46 359.411 1262.84 360.792C1261.22 362.173 1258.93 362.863 1255.99 362.863H1246.02ZM1255.74 349.527H1249.66V359.904H1255.74C1257.65 359.904 1259.1 359.487 1260.09 358.653C1261.07 357.818 1261.57 356.506 1261.57 354.716C1261.57 352.91 1261.07 351.598 1260.09 350.778C1259.1 349.944 1257.65 349.527 1255.74 349.527ZM1277.58 362.863V346.591H1280.26L1287.55 346.568C1290.49 346.568 1292.77 347.258 1294.4 348.639C1296.02 350.02 1296.83 352.045 1296.83 354.716C1296.83 357.386 1296.02 359.411 1294.4 360.792C1292.77 362.173 1290.49 362.863 1287.55 362.863H1277.58ZM1287.29 349.527H1281.22V359.904H1287.29C1289.21 359.904 1290.66 359.487 1291.64 358.653C1292.63 357.818 1293.12 356.506 1293.12 354.716C1293.12 352.91 1292.63 351.598 1291.64 350.778C1290.66 349.944 1289.21 349.527 1287.29 349.527ZM1300.14 362.863V346.591H1317.99V349.549H1303.79V353.145H1316.67V356.104H1303.79V359.904H1317.99V362.863H1300.14ZM1320.15 362.863L1326.25 354.738L1320.15 346.591H1324.58L1329.48 353.259H1331.57L1336.46 346.591H1340.9L1334.8 354.738L1340.9 362.863H1336.44L1331.57 356.218H1329.48L1324.61 362.863H1320.15ZM1051.83 389.863L1059.16 373.591H1064.78L1072.11 389.863H1068.15L1066.6 386.426H1057.34L1055.79 389.863H1051.83ZM1058.66 383.468H1065.28L1062.12 376.436H1061.82L1058.66 383.468ZM1074.96 389.863V373.591H1078.65L1090.17 385.289V373.591H1093.81V389.863H1090.12L1078.61 378.142V389.863H1074.96ZM1098.02 389.863V373.591H1100.71L1107.99 373.568C1110.93 373.568 1113.22 374.258 1114.84 375.639C1116.46 377.02 1117.27 379.045 1117.27 381.716C1117.27 384.386 1116.46 386.411 1114.84 387.792C1113.22 389.173 1110.93 389.863 1107.99 389.863H1098.02ZM1107.74 376.527H1101.66V386.904H1107.74C1109.65 386.904 1111.1 386.487 1112.09 385.653C1113.07 384.818 1113.56 383.506 1113.56 381.716C1113.56 379.91 1113.07 378.598 1112.09 377.778C1111.1 376.944 1109.65 376.527 1107.74 376.527ZM1129.58 389.863V373.591H1143.21C1144.89 373.591 1146.2 374.016 1147.12 374.865C1148.06 375.715 1148.53 377.005 1148.53 378.734C1148.53 380.206 1148.19 381.359 1147.51 382.193C1146.83 383.028 1145.86 383.551 1144.6 383.764L1148.35 389.863H1144.21L1140.73 383.878H1133.22V389.863H1129.58ZM1142.78 376.549H1133.22V380.896L1142.78 380.919C1143.44 380.919 1143.95 380.752 1144.3 380.418C1144.66 380.085 1144.85 379.523 1144.85 378.734C1144.85 377.93 1144.66 377.369 1144.3 377.05C1143.95 376.716 1143.44 376.549 1142.78 376.549ZM1152.3 389.863V373.591H1170.14V376.549H1155.94V380.145H1168.82V383.104H1155.94V386.904H1170.14V389.863H1152.3ZM1175.03 389.863L1173.21 373.591H1176.85L1178.19 385.471L1182.72 381.989V373.591H1186.36V382.011L1190.85 385.471L1192.21 373.591H1195.86L1194.03 389.863H1190.98L1184.54 384.651L1178.08 389.863H1175.03ZM1197.33 389.863L1204.66 373.591H1210.28L1217.61 389.863H1213.65L1212.1 386.426H1202.84L1201.29 389.863H1197.33ZM1204.16 383.468H1210.78L1207.62 376.436H1207.33L1204.16 383.468ZM1220.47 389.863V373.591H1234.1C1235.78 373.591 1237.09 374.016 1238.01 374.865C1238.95 375.715 1239.42 377.005 1239.42 378.734C1239.42 380.206 1239.08 381.359 1238.4 382.193C1237.72 383.028 1236.75 383.551 1235.49 383.764L1239.24 389.863H1235.1L1231.62 383.878H1224.11V389.863H1220.47ZM1233.67 376.549H1224.11V380.896L1233.67 380.919C1234.33 380.919 1234.84 380.752 1235.19 380.418C1235.56 380.085 1235.74 379.523 1235.74 378.734C1235.74 377.93 1235.56 377.369 1235.19 377.05C1234.84 376.716 1234.33 376.549 1233.67 376.549ZM1243.19 389.863V373.591H1245.88L1253.16 373.568C1256.1 373.568 1258.39 374.258 1260.01 375.639C1261.63 377.02 1262.44 379.045 1262.44 381.716C1262.44 384.386 1261.63 386.411 1260.01 387.792C1258.39 389.173 1256.1 389.863 1253.16 389.863H1243.19ZM1252.91 376.527H1246.83V386.904H1252.91C1254.82 386.904 1256.27 386.487 1257.25 385.653C1258.24 384.818 1258.73 383.506 1258.73 381.716C1258.73 379.91 1258.24 378.598 1257.25 377.778C1256.27 376.944 1254.82 376.527 1252.91 376.527Z" fill="white"/>
<path d="M1053.2 664.18V647.954L1066.9 647.908C1068.7 647.908 1070.04 648.288 1070.9 649.046C1071.78 649.79 1072.22 650.912 1072.22 652.414C1072.22 653.916 1071.72 655.016 1070.72 655.714C1071.39 656.078 1071.88 656.564 1072.2 657.171C1072.52 657.763 1072.68 658.529 1072.68 659.469C1072.68 661.002 1072.24 662.17 1071.36 662.974C1070.49 663.763 1069.16 664.158 1067.35 664.158L1053.2 664.18ZM1066.47 650.821H1056.84V654.463H1066.47C1067.85 654.463 1068.54 653.841 1068.54 652.596C1068.54 651.413 1067.85 650.821 1066.47 650.821ZM1066.92 657.376H1056.84V661.245H1066.92C1068.3 661.245 1068.99 660.592 1068.99 659.287C1068.99 658.013 1068.3 657.376 1066.92 657.376ZM1082.79 664.294C1081.13 664.294 1079.83 664.082 1078.87 663.657C1077.92 663.217 1077.23 662.557 1076.82 661.677C1076.41 660.797 1076.21 659.689 1076.21 658.354V647.908H1079.85V658.354C1079.85 659.507 1080.12 660.296 1080.65 660.721C1081.19 661.131 1082.11 661.336 1083.4 661.336H1087.79C1089.08 661.336 1089.99 661.131 1090.52 660.721C1091.07 660.296 1091.34 659.507 1091.34 658.354V647.908H1094.98V658.354C1094.98 659.689 1094.78 660.797 1094.37 661.677C1093.96 662.557 1093.28 663.217 1092.32 663.657C1091.37 664.082 1090.06 664.294 1088.41 664.294H1082.79ZM1099.2 664.18V647.908H1112.83C1114.51 647.908 1115.82 648.333 1116.75 649.183C1117.69 650.032 1118.16 651.322 1118.16 653.052C1118.16 654.523 1117.81 655.676 1117.13 656.511C1116.45 657.345 1115.48 657.869 1114.22 658.081L1117.97 664.18H1113.83L1110.35 658.195H1102.84V664.18H1099.2ZM1112.4 650.867H1102.84V655.214L1112.4 655.236C1113.07 655.236 1113.57 655.069 1113.92 654.736C1114.29 654.402 1114.47 653.841 1114.47 653.052C1114.47 652.247 1114.29 651.686 1113.92 651.367C1113.57 651.034 1113.07 650.867 1112.4 650.867ZM1121.92 664.18V647.908H1125.61L1137.12 659.606V647.908H1140.77V664.18H1137.08L1125.56 652.46V664.18H1121.92ZM1153.4 656.147V647.908H1173.42V656.147H1169.74V650.867H1164.78V664.18H1161.13V650.867H1157.08V656.147H1153.4ZM1185.28 664.294C1182.38 664.294 1180.14 663.604 1178.55 662.223C1176.95 660.827 1176.16 658.764 1176.16 656.033C1176.16 653.317 1176.95 651.269 1178.55 649.888C1180.14 648.492 1182.44 647.794 1185.44 647.794H1189.54C1192.54 647.794 1194.84 648.492 1196.43 649.888C1198.03 651.269 1198.82 653.317 1198.82 656.033C1198.82 658.764 1198.03 660.827 1196.43 662.223C1194.84 663.604 1192.58 664.294 1189.65 664.294H1185.28ZM1185.69 650.753C1184.01 650.753 1182.7 651.056 1181.75 651.663C1180.81 652.27 1180.22 653.234 1179.98 654.554H1195C1194.76 653.234 1194.17 652.27 1193.22 651.663C1192.28 651.056 1190.97 650.753 1189.29 650.753H1185.69ZM1185.76 661.336H1189.29C1190.99 661.336 1192.3 661.032 1193.22 660.425C1194.17 659.818 1194.76 658.847 1195 657.512H1179.98C1180.22 658.847 1180.81 659.818 1181.75 660.425C1182.7 661.032 1184.03 661.336 1185.76 661.336ZM1202.12 664.18V647.954H1205.76V654.576H1211.18L1216.53 647.954H1221.06L1214.37 656.056L1221.06 664.18H1216.53L1211.16 657.535H1205.76V664.18H1202.12ZM1223.91 664.18V647.908H1241.75V650.867H1227.55V654.463H1240.43V657.421H1227.55V661.222H1241.75V664.18H1223.91ZM1245.28 664.18V647.908H1248.97L1260.48 659.606V647.908H1264.12V664.18H1260.44L1248.92 652.46V664.18H1245.28Z" fill="white"/>
<path d="M35.796 749V740.761H55.8231V749H52.1363V743.72H47.175V757.033H43.5337V743.72H39.4828V749H35.796ZM59.4656 757.033V740.761H77.3079V743.72H63.1069V747.316H75.988V750.274H63.1069V754.075H77.3079V757.033H59.4656ZM79.4672 757.033L86.7953 740.761H92.4166L99.7447 757.033H95.7848L94.2372 753.597H84.9747L83.4271 757.033H79.4672ZM86.2947 750.638H92.9173L89.7539 743.606H89.458L86.2947 750.638ZM102.6 757.033V740.761H105.649L113.182 746.041H113.296L120.829 740.761H123.879V757.033H120.237V745.313L115.071 748.772V757.033H111.43V748.772L106.241 745.313V757.033H102.6ZM136.52 749V740.761H156.547V749H152.86V743.72H147.899V757.033H144.258V743.72H140.207V749H136.52ZM168.405 757.147C165.507 757.147 163.262 756.457 161.669 755.076C160.076 753.68 159.279 751.617 159.279 748.886C159.279 746.17 160.076 744.122 161.669 742.741C163.262 741.346 165.56 740.648 168.564 740.648H172.661C175.665 740.648 177.964 741.346 179.557 742.741C181.15 744.122 181.946 746.17 181.946 748.886C181.946 751.617 181.15 753.68 179.557 755.076C177.964 756.457 175.703 757.147 172.775 757.147H168.405ZM168.815 743.606C167.131 743.606 165.818 743.91 164.878 744.516C163.937 745.123 163.345 746.087 163.103 747.407H178.123C177.88 746.087 177.288 745.123 176.348 744.516C175.407 743.91 174.095 743.606 172.411 743.606H168.815ZM168.883 754.189H172.411C174.11 754.189 175.422 753.885 176.348 753.278C177.288 752.671 177.88 751.7 178.123 750.365H163.103C163.345 751.7 163.937 752.671 164.878 753.278C165.818 753.885 167.153 754.189 168.883 754.189ZM185.246 757.033V740.807H188.887V747.43H194.304L199.652 740.807H204.181L197.49 748.909L204.181 757.033H199.652L194.281 750.388H188.887V757.033H185.246ZM207.035 757.033V740.761H224.878V743.72H210.677V747.316H223.558V750.274H210.677V754.075H224.878V757.033H207.035ZM228.402 757.033V740.761H232.089L243.605 752.459V740.761H247.246V757.033H243.559L232.044 745.313V757.033H228.402Z" fill="white"/>
<path d="M1053.06 446.523V444.156H1063.07C1063.54 444.156 1063.88 444.029 1064.11 443.774C1064.34 443.507 1064.46 443.143 1064.46 442.682C1064.46 442.208 1064.34 441.838 1064.11 441.571C1063.88 441.304 1063.54 441.17 1063.07 441.17H1054.77V438.822H1063.06C1063.99 438.822 1064.46 438.33 1064.46 437.347C1064.46 436.376 1063.99 435.89 1063.06 435.89H1053.06V433.524H1063.6C1064.86 433.524 1065.84 433.839 1066.53 434.47C1067.24 435.089 1067.59 435.957 1067.59 437.074C1067.59 437.681 1067.47 438.257 1067.24 438.804C1067.01 439.338 1066.63 439.732 1066.1 439.987C1066.63 440.254 1067.01 440.648 1067.24 441.17C1067.47 441.68 1067.59 442.245 1067.59 442.864C1067.59 443.968 1067.24 444.854 1066.53 445.522C1065.84 446.189 1064.86 446.523 1063.6 446.523H1053.06ZM1075.87 446.541C1073.98 446.541 1072.51 445.971 1071.47 444.83C1070.42 443.677 1069.9 442.069 1069.9 440.005C1069.9 437.76 1070.55 436.115 1071.85 435.071C1073.16 434.027 1074.99 433.505 1077.33 433.505H1084.67V435.872H1077.53C1076.21 435.872 1075.16 436.097 1074.38 436.546C1073.62 436.983 1073.14 437.754 1072.96 438.858H1081.46C1082.81 438.858 1083.87 439.198 1084.65 439.878C1085.43 440.545 1085.82 441.474 1085.82 442.663C1085.82 443.889 1085.43 444.842 1084.65 445.522C1083.87 446.201 1082.81 446.541 1081.46 446.541H1075.87ZM1076.07 444.174H1080.9C1081.57 444.174 1082.08 444.053 1082.45 443.81C1082.81 443.555 1082.99 443.179 1082.99 442.682C1082.99 442.196 1082.81 441.832 1082.45 441.589C1082.08 441.346 1081.57 441.225 1080.9 441.225H1072.96C1073.24 443.191 1074.28 444.174 1076.07 444.174ZM1088.49 446.523V443.92H1091.4V446.523H1088.49ZM1094.84 446.523V444.156H1104.51C1105.66 444.156 1106.24 443.665 1106.24 442.682C1106.24 441.698 1105.66 441.207 1104.51 441.207H1094.84V433.524H1108.53V435.872H1097.67V438.84H1105.08C1106.34 438.84 1107.31 439.18 1108.01 439.859C1108.71 440.539 1109.06 441.48 1109.06 442.682C1109.06 443.883 1108.71 444.824 1108.01 445.504C1107.31 446.183 1106.34 446.523 1105.08 446.523H1094.84ZM1118.79 446.614C1116.45 446.614 1114.63 446.062 1113.31 444.957C1112.02 443.841 1111.37 442.19 1111.37 440.005C1111.37 437.833 1112.02 436.194 1113.31 435.089C1114.63 433.973 1116.45 433.414 1118.79 433.414H1121.16C1123.52 433.414 1125.34 433.973 1126.64 435.089C1127.94 436.194 1128.59 437.833 1128.59 440.005C1128.59 442.19 1127.94 443.841 1126.64 444.957C1125.34 446.062 1123.52 446.614 1121.16 446.614H1118.79ZM1114.33 440.005C1114.33 441.328 1114.66 442.336 1115.3 443.027L1122.44 435.909C1122 435.824 1121.51 435.781 1120.96 435.781H1118.99C1117.47 435.781 1116.31 436.115 1115.52 436.783C1114.73 437.45 1114.33 438.524 1114.33 440.005ZM1118.99 444.247H1120.96C1122.49 444.247 1123.65 443.913 1124.44 443.246C1125.23 442.566 1125.62 441.486 1125.62 440.005C1125.62 438.682 1125.29 437.675 1124.64 436.983L1117.48 444.12C1117.93 444.205 1118.44 444.247 1118.99 444.247ZM1141.05 446.523L1151.06 433.542H1153.83L1143.82 446.523H1141.05ZM1141.67 440.023C1140.6 440.023 1139.77 439.732 1139.17 439.149C1138.59 438.555 1138.3 437.766 1138.3 436.783C1138.3 435.799 1138.59 435.017 1139.17 434.434C1139.77 433.839 1140.6 433.542 1141.67 433.542H1142.81C1143.88 433.542 1144.71 433.839 1145.29 434.434C1145.88 435.017 1146.18 435.799 1146.18 436.783C1146.18 437.766 1145.88 438.555 1145.29 439.149C1144.71 439.732 1143.88 440.023 1142.81 440.023H1141.67ZM1142.03 438.276H1142.45C1142.92 438.276 1143.28 438.148 1143.51 437.893C1143.75 437.626 1143.87 437.256 1143.87 436.783C1143.87 436.309 1143.75 435.945 1143.51 435.69C1143.28 435.423 1142.92 435.29 1142.45 435.29H1142.03C1141.56 435.29 1141.2 435.423 1140.96 435.69C1140.73 435.945 1140.61 436.309 1140.61 436.783C1140.61 437.256 1140.73 437.626 1140.96 437.893C1141.2 438.148 1141.56 438.276 1142.03 438.276ZM1151.9 446.523C1150.83 446.523 1150 446.232 1149.4 445.649C1148.82 445.054 1148.53 444.265 1148.53 443.282C1148.53 442.299 1148.82 441.516 1149.4 440.934C1150 440.339 1150.83 440.042 1151.9 440.042H1153.05C1154.11 440.042 1154.94 440.339 1155.52 440.934C1156.12 441.516 1156.41 442.299 1156.41 443.282C1156.41 444.265 1156.12 445.054 1155.52 445.649C1154.94 446.232 1154.11 446.523 1153.05 446.523H1151.9ZM1152.26 444.775H1152.68C1153.16 444.775 1153.51 444.648 1153.74 444.393C1153.98 444.126 1154.1 443.756 1154.1 443.282C1154.1 442.809 1153.98 442.445 1153.74 442.19C1153.51 441.923 1153.16 441.789 1152.68 441.789H1152.26C1151.79 441.789 1151.43 441.923 1151.19 442.19C1150.96 442.445 1150.84 442.809 1150.84 443.282C1150.84 443.756 1150.96 444.126 1151.19 444.393C1151.43 444.648 1151.79 444.775 1152.26 444.775Z" fill="white"/>
<path d="M1056.56 717.8V707.185H1052.7V704.819H1059.38V717.8H1056.56ZM1069.85 717.891C1067.5 717.891 1065.68 717.339 1064.37 716.234C1063.07 715.117 1062.42 713.467 1062.42 711.282C1062.42 709.109 1063.07 707.471 1064.37 706.366C1065.68 705.249 1067.5 704.691 1069.85 704.691H1072.21C1074.57 704.691 1076.39 705.249 1077.69 706.366C1078.99 707.471 1079.64 709.109 1079.64 711.282C1079.64 713.467 1078.99 715.117 1077.69 716.234C1076.39 717.339 1074.57 717.891 1072.21 717.891H1069.85ZM1065.39 711.282C1065.39 712.605 1065.71 713.612 1066.35 714.304L1073.49 707.185C1073.05 707.1 1072.56 707.058 1072.01 707.058H1070.05C1068.52 707.058 1067.36 707.392 1066.57 708.059C1065.78 708.727 1065.39 709.801 1065.39 711.282ZM1070.05 715.524H1072.01C1073.54 715.524 1074.7 715.19 1075.49 714.523C1076.28 713.843 1076.67 712.763 1076.67 711.282C1076.67 709.959 1076.35 708.951 1075.69 708.26L1068.53 715.397C1068.98 715.482 1069.49 715.524 1070.05 715.524ZM1084.7 717.8L1094.72 704.819H1097.48L1087.47 717.8H1084.7ZM1085.32 711.3C1084.25 711.3 1083.42 711.009 1082.83 710.426C1082.24 709.831 1081.95 709.042 1081.95 708.059C1081.95 707.076 1082.24 706.293 1082.83 705.711C1083.42 705.116 1084.25 704.819 1085.32 704.819H1086.47C1087.54 704.819 1088.36 705.116 1088.94 705.711C1089.54 706.293 1089.84 707.076 1089.84 708.059C1089.84 709.042 1089.54 709.831 1088.94 710.426C1088.36 711.009 1087.54 711.3 1086.47 711.3H1085.32ZM1085.69 709.552H1086.1C1086.58 709.552 1086.93 709.425 1087.16 709.17C1087.4 708.903 1087.52 708.533 1087.52 708.059C1087.52 707.586 1087.4 707.222 1087.16 706.967C1086.93 706.7 1086.58 706.566 1086.1 706.566H1085.69C1085.21 706.566 1084.85 706.7 1084.61 706.967C1084.38 707.222 1084.27 707.586 1084.27 708.059C1084.27 708.533 1084.38 708.903 1084.61 709.17C1084.85 709.425 1085.21 709.552 1085.69 709.552ZM1095.55 717.8C1094.49 717.8 1093.65 717.509 1093.06 716.926C1092.48 716.331 1092.19 715.542 1092.19 714.559C1092.19 713.576 1092.48 712.793 1093.06 712.21C1093.65 711.616 1094.49 711.318 1095.55 711.318H1096.7C1097.77 711.318 1098.59 711.616 1099.18 712.21C1099.77 712.793 1100.07 713.576 1100.07 714.559C1100.07 715.542 1099.77 716.331 1099.18 716.926C1098.59 717.509 1097.77 717.8 1096.7 717.8H1095.55ZM1095.92 716.052H1096.34C1096.81 716.052 1097.16 715.925 1097.39 715.67C1097.64 715.403 1097.76 715.032 1097.76 714.559C1097.76 714.086 1097.64 713.722 1097.39 713.467C1097.16 713.2 1096.81 713.066 1096.34 713.066H1095.92C1095.44 713.066 1095.09 713.2 1094.84 713.467C1094.61 713.722 1094.5 714.086 1094.5 714.559C1094.5 715.032 1094.61 715.403 1094.84 715.67C1095.09 715.925 1095.44 716.052 1095.92 716.052Z" fill="white"/>
<path d="M38.8137 814.294V803.68H34.9539V801.313H41.6357V814.294H38.8137ZM52.103 814.385C49.7604 814.385 47.9337 813.833 46.6229 812.728C45.3241 811.612 44.6748 809.961 44.6748 807.776C44.6748 805.604 45.3241 803.965 46.6229 802.861C47.9337 801.744 49.7604 801.186 52.103 801.186H54.4699C56.8246 801.186 58.6513 801.744 59.95 802.861C61.2487 803.965 61.8981 805.604 61.8981 807.776C61.8981 809.961 61.2487 811.612 59.95 812.728C58.6513 813.833 56.8246 814.385 54.4699 814.385H52.103ZM47.6424 807.776C47.6424 809.099 47.9641 810.107 48.6074 810.799L55.7443 803.68C55.3074 803.595 54.8158 803.552 54.2696 803.552H52.3033C50.7739 803.552 49.6148 803.886 48.8258 804.554C48.0369 805.221 47.6424 806.295 47.6424 807.776ZM52.3033 812.018H54.2696C55.7989 812.018 56.9581 811.685 57.747 811.017C58.536 810.337 58.9304 809.257 58.9304 807.776C58.9304 806.453 58.6027 805.446 57.9473 804.754L50.7921 811.891C51.2412 811.976 51.745 812.018 52.3033 812.018ZM66.9599 814.294L76.9735 801.313H79.7409L69.7273 814.294H66.9599ZM67.579 807.794C66.5109 807.794 65.6794 807.503 65.0847 806.921C64.5021 806.326 64.2108 805.537 64.2108 804.554C64.2108 803.571 64.5021 802.788 65.0847 802.205C65.6794 801.61 66.5109 801.313 67.579 801.313H68.726C69.7941 801.313 70.6194 801.61 71.2021 802.205C71.7968 802.788 72.0942 803.571 72.0942 804.554C72.0942 805.537 71.7968 806.326 71.2021 806.921C70.6194 807.503 69.7941 807.794 68.726 807.794H67.579ZM67.9431 806.047H68.3618C68.8352 806.047 69.1872 805.919 69.4178 805.664C69.6606 805.397 69.782 805.027 69.782 804.554C69.782 804.08 69.6606 803.716 69.4178 803.461C69.1872 803.194 68.8352 803.061 68.3618 803.061H67.9431C67.4697 803.061 67.1117 803.194 66.8689 803.461C66.6383 803.716 66.523 804.08 66.523 804.554C66.523 805.027 66.6383 805.397 66.8689 805.664C67.1117 805.919 67.4697 806.047 67.9431 806.047ZM77.811 814.294C76.7429 814.294 75.9115 814.003 75.3167 813.42C74.7341 812.826 74.4428 812.037 74.4428 811.053C74.4428 810.07 74.7341 809.287 75.3167 808.705C75.9115 808.11 76.7429 807.813 77.811 807.813H78.958C80.0261 807.813 80.8515 808.11 81.4341 808.705C82.0289 809.287 82.3262 810.07 82.3262 811.053C82.3262 812.037 82.0289 812.826 81.4341 813.42C80.8515 814.003 80.0261 814.294 78.958 814.294H77.811ZM78.1751 812.546H78.5939C79.0673 812.546 79.4193 812.419 79.6499 812.164C79.8926 811.897 80.014 811.527 80.014 811.053C80.014 810.58 79.8926 810.216 79.6499 809.961C79.4193 809.694 79.0673 809.561 78.5939 809.561H78.1751C77.7018 809.561 77.3437 809.694 77.101 809.961C76.8703 810.216 76.755 810.58 76.755 811.053C76.755 811.527 76.8703 811.897 77.101 812.164C77.3437 812.419 77.7018 812.546 78.1751 812.546Z" fill="white"/>
<path d="M35.5001 443.228V440.843L42.3458 432.613H45.9324L38.9775 440.861H46.0053V437.875H48.8273V440.861H51.886V443.228H48.8273V445.613H46.0053V443.228H35.5001ZM53.3648 445.613V443.246H63.3784C63.8396 443.246 64.1855 443.119 64.4161 442.864C64.6468 442.597 64.7621 442.232 64.7621 441.771C64.7621 441.298 64.6468 440.928 64.4161 440.661C64.1855 440.394 63.8396 440.26 63.3784 440.26H55.0762V437.911H63.3602C64.2948 437.911 64.7621 437.42 64.7621 436.437C64.7621 435.466 64.2948 434.98 63.3602 434.98H53.3648V432.613H63.9064C65.1687 432.613 66.1458 432.929 66.8376 433.56C67.5416 434.179 67.8936 435.047 67.8936 436.164C67.8936 436.771 67.7783 437.347 67.5477 437.893C67.317 438.427 66.9347 438.822 66.4007 439.077C66.9347 439.344 67.317 439.738 67.5477 440.26C67.7783 440.77 67.8936 441.334 67.8936 441.953C67.8936 443.058 67.5416 443.944 66.8376 444.611C66.1458 445.279 65.1687 445.613 63.9064 445.613H53.3648ZM70.5709 445.613V443.009H73.484V445.613H70.5709ZM76.9229 445.613V443.246H86.5905C87.7436 443.246 88.3201 442.754 88.3201 441.771C88.3201 440.788 87.7436 440.296 86.5905 440.296H76.9229V432.613H90.6142V434.962H79.7449V437.93H87.1549C88.4172 437.93 89.3943 438.27 90.0862 438.949C90.7902 439.629 91.1422 440.57 91.1422 441.771C91.1422 442.973 90.7902 443.914 90.0862 444.593C89.3943 445.273 88.4172 445.613 87.1549 445.613H76.9229ZM100.874 445.704C98.5312 445.704 96.7045 445.152 95.3937 444.047C94.0949 442.93 93.4456 441.28 93.4456 439.095C93.4456 436.922 94.0949 435.284 95.3937 434.179C96.7045 433.062 98.5312 432.504 100.874 432.504H103.241C105.595 432.504 107.422 433.062 108.721 434.179C110.02 435.284 110.669 436.922 110.669 439.095C110.669 441.28 110.02 442.93 108.721 444.047C107.422 445.152 105.595 445.704 103.241 445.704H100.874ZM96.4132 439.095C96.4132 440.418 96.7349 441.425 97.3782 442.117L104.515 434.998C104.078 434.913 103.587 434.871 103.04 434.871H101.074C99.5447 434.871 98.3856 435.205 97.5966 435.872C96.8077 436.54 96.4132 437.614 96.4132 439.095ZM101.074 443.337H103.04C104.57 443.337 105.729 443.003 106.518 442.336C107.307 441.656 107.701 440.576 107.701 439.095C107.701 437.772 107.374 436.764 106.718 436.073L99.5629 443.21C100.012 443.294 100.516 443.337 101.074 443.337ZM115.731 445.613L125.744 432.632H128.512L118.498 445.613H115.731ZM116.35 439.113C115.282 439.113 114.45 438.822 113.855 438.239C113.273 437.644 112.982 436.855 112.982 435.872C112.982 434.889 113.273 434.106 113.855 433.524C114.45 432.929 115.282 432.632 116.35 432.632H117.497C118.565 432.632 119.39 432.929 119.973 433.524C120.568 434.106 120.865 434.889 120.865 435.872C120.865 436.855 120.568 437.644 119.973 438.239C119.39 438.822 118.565 439.113 117.497 439.113H116.35ZM116.714 437.365H117.133C117.606 437.365 117.958 437.238 118.189 436.983C118.431 436.716 118.553 436.346 118.553 435.872C118.553 435.399 118.431 435.035 118.189 434.78C117.958 434.513 117.606 434.379 117.133 434.379H116.714C116.241 434.379 115.882 434.513 115.64 434.78C115.409 435.035 115.294 435.399 115.294 435.872C115.294 436.346 115.409 436.716 115.64 436.983C115.882 437.238 116.241 437.365 116.714 437.365ZM126.582 445.613C125.514 445.613 124.682 445.321 124.088 444.739C123.505 444.144 123.214 443.355 123.214 442.372C123.214 441.389 123.505 440.606 124.088 440.023C124.682 439.429 125.514 439.131 126.582 439.131H127.729C128.797 439.131 129.622 439.429 130.205 440.023C130.8 440.606 131.097 441.389 131.097 442.372C131.097 443.355 130.8 444.144 130.205 444.739C129.622 445.321 128.797 445.613 127.729 445.613H126.582ZM126.946 443.865H127.365C127.838 443.865 128.19 443.738 128.421 443.483C128.663 443.216 128.785 442.845 128.785 442.372C128.785 441.899 128.663 441.535 128.421 441.28C128.19 441.013 127.838 440.879 127.365 440.879H126.946C126.473 440.879 126.115 441.013 125.872 441.28C125.641 441.535 125.526 441.899 125.526 442.372C125.526 442.845 125.641 443.216 125.872 443.483C126.115 443.738 126.473 443.865 126.946 443.865Z" fill="white"/>
<mask id="path-9-inside-1_0_64" fill="white">
<path d="M605.298 746.951C540.031 728.955 483.295 688.326 445.24 632.331C407.184 576.335 390.292 508.627 397.585 441.318C404.877 374.009 435.879 311.491 485.045 264.945C534.21 218.4 598.331 190.865 665.938 187.266L676.94 393.909C658.392 394.897 640.8 402.451 627.312 415.221C613.823 427.99 605.318 445.143 603.317 463.609C601.316 482.075 605.951 500.651 616.391 516.013C626.832 531.375 642.397 542.522 660.303 547.459L605.298 746.951Z"/>
</mask>
<path d="M605.298 746.951C540.031 728.955 483.295 688.326 445.24 632.331C407.184 576.335 390.292 508.627 397.585 441.318C404.877 374.009 435.879 311.491 485.045 264.945C534.21 218.4 598.331 190.865 665.938 187.266L676.94 393.909C658.392 394.897 640.8 402.451 627.312 415.221C613.823 427.99 605.318 445.143 603.317 463.609C601.316 482.075 605.951 500.651 616.391 516.013C626.832 531.375 642.397 542.522 660.303 547.459L605.298 746.951Z" fill="#C464FF" stroke="#1C1C1C" stroke-width="5.46195" mask="url(#path-9-inside-1_0_64)"/>
<mask id="path-10-inside-2_0_64" fill="white">
<path d="M665.63 187.282C718.245 184.424 770.624 196.199 816.953 221.302C863.282 246.404 901.751 283.852 928.09 329.489C954.429 375.127 967.608 427.169 966.166 479.842C964.724 532.515 948.716 583.759 919.919 627.886L746.68 514.834C754.588 502.716 758.984 488.644 759.38 474.18C759.776 459.716 756.157 445.424 748.924 432.892C741.691 420.36 731.128 410.076 718.405 403.183C705.683 396.29 691.3 393.056 676.851 393.841L665.63 187.282Z"/>
</mask>
<path d="M665.63 187.282C718.245 184.424 770.624 196.199 816.953 221.302C863.282 246.404 901.751 283.852 928.09 329.489C954.429 375.127 967.608 427.169 966.166 479.842C964.724 532.515 948.716 583.759 919.919 627.886L746.68 514.834C754.588 502.716 758.984 488.644 759.38 474.18C759.776 459.716 756.157 445.424 748.924 432.892C741.691 420.36 731.128 410.076 718.405 403.183C705.683 396.29 691.3 393.056 676.851 393.841L665.63 187.282Z" fill="#42FFFF" stroke="#1C1C1C" stroke-width="5.46195" mask="url(#path-10-inside-2_0_64)"/>
<mask id="path-11-inside-3_0_64" fill="white">
<path d="M920.962 626.275C888.905 676.129 842.109 714.756 787.083 736.784L710.299 544.978C725.459 538.909 738.352 528.266 747.184 514.531L920.962 626.275Z"/>
</mask>
<path d="M920.962 626.275C888.905 676.129 842.109 714.756 787.083 736.784L710.299 544.978C725.459 538.909 738.352 528.266 747.184 514.531L920.962 626.275Z" fill="#C464FF"/>
<path d="M920.962 626.275C888.905 676.129 842.109 714.756 787.083 736.784L710.299 544.978C725.459 538.909 738.352 528.266 747.184 514.531L920.962 626.275Z" fill="#C464FF"/>
<path d="M920.962 626.275C888.905 676.129 842.109 714.756 787.083 736.784L710.299 544.978C725.459 538.909 738.352 528.266 747.184 514.531L920.962 626.275Z" fill="#4277FF"/>
<path d="M920.962 626.275C888.905 676.129 842.109 714.756 787.083 736.784L710.299 544.978C725.459 538.909 738.352 528.266 747.184 514.531L920.962 626.275Z" stroke="#1C1C1C" stroke-width="5.46195" mask="url(#path-11-inside-3_0_64)"/>
<mask id="path-12-inside-4_0_64" fill="white">
<path d="M786.991 736.821C728.511 760.208 663.934 763.578 603.338 746.404L659.853 547C676.409 551.693 694.053 550.772 710.031 544.382L786.991 736.821Z"/>
</mask>
<path d="M786.991 736.821C728.511 760.208 663.934 763.578 603.338 746.404L659.853 547C676.409 551.693 694.053 550.772 710.031 544.382L786.991 736.821Z" fill="#C464FF"/>
<path d="M786.991 736.821C728.511 760.208 663.934 763.578 603.338 746.404L659.853 547C676.409 551.693 694.053 550.772 710.031 544.382L786.991 736.821Z" fill="#C464FF"/>
<path d="M786.991 736.821C728.511 760.208 663.934 763.578 603.338 746.404L659.853 547C676.409 551.693 694.053 550.772 710.031 544.382L786.991 736.821Z" fill="#1EFF85"/>
<path d="M786.991 736.821C728.511 760.208 663.934 763.578 603.338 746.404L659.853 547C676.409 551.693 694.053 550.772 710.031 544.382L786.991 736.821Z" stroke="#1D1D1D" stroke-width="5.46195" mask="url(#path-12-inside-4_0_64)"/>
<circle cx="681.102" cy="472.95" r="305.414" stroke="#7DF9FF" stroke-width="2.73097"/>
<path d="M3.36566 407.861L17.0205 415.745V399.978L3.36566 407.861ZM382.971 406.496H15.655V409.227H382.971V406.496Z" fill="#7DF9FF"/>
<path d="M1361.11 411.958L1347.46 419.842V404.074L1361.11 411.958ZM981.509 410.592H1348.83V413.323H981.509V410.592Z" fill="#7DF9FF"/>
<path d="M1353.89 683.29C1354.42 682.757 1354.42 681.892 1353.89 681.359L1345.2 672.669C1344.66 672.136 1343.8 672.136 1343.27 672.669C1342.73 673.202 1342.73 674.067 1343.27 674.6L1350.99 682.324L1343.27 690.049C1342.73 690.582 1342.73 691.446 1343.27 691.98C1343.8 692.513 1344.66 692.513 1345.2 691.98L1353.89 683.29ZM902.766 683.69H1352.92V680.959H902.766V683.69Z" fill="#7DF9FF"/>
<path d="M1.03464 776.943C0.501383 777.476 0.501383 778.341 1.03464 778.874L9.72454 787.564C10.2578 788.097 11.1224 788.097 11.6556 787.564C12.1889 787.031 12.1889 786.166 11.6556 785.633L3.93127 777.908L11.6556 770.184C12.1889 769.651 12.1889 768.786 11.6556 768.253C11.1224 767.72 10.2578 767.72 9.72454 768.253L1.03464 776.943ZM701.585 776.543H2.00018V779.274H701.585V776.543Z" fill="#7DF9FF"/>
</svg>
