<svg width="95" height="95" viewBox="0 0 95 95" fill="none" xmlns="http://www.w3.org/2000/svg">
<path d="M47.5 5.9375C58.5231 5.9375 69.0946 10.3164 76.8891 18.1109C84.6836 25.9054 89.0625 36.4769 89.0625 47.5C89.0625 58.5231 84.6836 69.0946 76.8891 76.8891C69.0946 84.6836 58.5231 89.0625 47.5 89.0625C36.4769 89.0625 25.9054 84.6836 18.1109 76.8891C10.3164 69.0946 5.9375 58.5231 5.9375 47.5C5.9375 36.4769 10.3164 25.9054 18.1109 18.1109C25.9054 10.3164 36.4769 5.9375 47.5 5.9375ZM47.5 83.125C56.9483 83.125 66.0097 79.3717 72.6907 72.6907C79.3717 66.0097 83.125 56.9483 83.125 47.5C83.125 38.0517 79.3717 28.9903 72.6907 22.3093C66.0097 15.6283 56.9483 11.875 47.5 11.875C38.0517 11.875 28.9903 15.6283 22.3093 22.3093C15.6283 28.9903 11.875 38.0517 11.875 47.5C11.875 56.9483 15.6283 66.0097 22.3093 72.6907C28.9903 79.3717 38.0517 83.125 47.5 83.125ZM43.0469 60.1528L62.0291 47.5L43.0469 34.8472V60.1528ZM44.0325 28.3634L67.1769 43.795C67.7868 44.2017 68.2868 44.7526 68.6327 45.3989C68.9785 46.0453 69.1595 46.767 69.1595 47.5C69.1595 48.233 68.9785 48.9547 68.6327 49.6011C68.2868 50.2474 67.7868 50.7983 67.1769 51.205L44.0325 66.6366C43.3619 67.0836 42.5825 67.3403 41.7775 67.3792C40.9724 67.4181 40.1719 67.2378 39.4613 66.8575C38.7507 66.4772 38.1566 65.9112 37.7424 65.2198C37.3282 64.5284 37.1094 63.7375 37.1094 62.9316V32.0625C37.1094 31.2565 37.3282 30.4657 37.7424 29.7743C38.1566 29.0829 38.7507 28.5169 39.4613 28.1366C40.1719 27.7563 40.9724 27.576 41.7775 27.6149C42.5825 27.6538 43.3619 27.9105 44.0325 28.3575V28.3634Z" fill="white"/>
</svg>
